<svg id="Layer_1" data-name="Layer 1" xmlns="http://www.w3.org/2000/svg" xmlns:xlink="http://www.w3.org/1999/xlink" viewBox="0 0 330.18 321.32"><defs><style>.cls-1{fill:#3dab4f;}.cls-2{fill:#e7eaeb;}.cls-3{fill:#ec2127;}.cls-4{fill:url(#linear-gradient);}.cls-5{fill:#6dcff6;opacity:0.2;isolation:isolate;}</style><linearGradient id="linear-gradient" x1="480.31" y1="1271.94" x2="475.48" y2="954.53" gradientTransform="translate(-300.52 -934.44)" gradientUnits="userSpaceOnUse"><stop offset="0" stop-color="#599642"/><stop offset="1" stop-color="#93b13d"/></linearGradient></defs><title>QGIS DZ</title><polygon class="cls-1" points="177.18 174.13 224.38 174.13 185.14 135.4 135.86 135.4 135.86 182.19 177.18 222.99 177.18 174.13"/><polygon class="cls-2" points="326.95 275.95 243.99 194.79 197.84 194.79 197.84 242.32 276.67 321.32 326.95 321.32 326.95 275.95"/><polygon class="cls-3" points="197.84 194.79 243.99 194.79 224.38 174.13 177.18 174.13 177.18 222.99 197.84 242.32 197.84 194.79"/><path class="cls-4" d="M190.06,267.68c-3,.62-4.56.4-12.09.4-53.89,0-99.71-44.3-99.71-101.75S123.58,65.55,178,65.55s97.69,43.33,97.69,100.78a109.11,109.11,0,0,1-3.32,26.85L322.22,243a154.63,154.63,0,0,0,20-77.1C342.27,77.4,271.61,11.1,177,11.1,82.74,11.1,12.09,77,12.09,165.94c0,89.41,70.65,156.58,164.87,156.58,24.32,0,41.49-3.79,59.5-9.71Z" transform="translate(-12.09 -11.1)"/><polygon class="cls-5" points="137.07 135.4 185.14 135.4 326.95 275.95 326.95 321.32 137.07 135.4"/><polygon class="cls-3" points="208.97 209.71 244.97 221.54 208.97 233.5 231.31 202.75 231.44 240.59 208.97 209.71"/></svg>